<svg width="157" height="24" viewBox="0 0 157 24" fill="none" xmlns="http://www.w3.org/2000/svg">
<path d="M149.805 24H139.272C138.85 24 138.539 23.9111 138.339 23.7333C138.161 23.5333 138.072 23.2222 138.072 22.8V18.9C138.072 18.4778 138.161 18.1778 138.339 18C138.539 17.8 138.85 17.7 139.272 17.7H148.239C148.528 17.7 148.739 17.6111 148.872 17.4333C149.028 17.2333 149.105 17 149.105 16.7333C149.105 16.3556 149.028 16.0778 148.872 15.9C148.739 15.7222 148.528 15.6222 148.239 15.6L143.239 14.9C141.683 14.6778 140.428 14.1667 139.472 13.3667C138.539 12.5667 138.072 11.2333 138.072 9.36667V5.86667C138.072 3.97778 138.683 2.53333 139.905 1.53333C141.128 0.511111 142.816 0 144.972 0H154.305C154.728 0 155.028 0.1 155.205 0.3C155.405 0.477778 155.505 0.777778 155.505 1.2V5.16667C155.505 5.58889 155.405 5.9 155.205 6.1C155.028 6.27778 154.728 6.36667 154.305 6.36667H146.539C146.25 6.36667 146.028 6.46667 145.872 6.66667C145.716 6.84444 145.639 7.07778 145.639 7.36667C145.639 7.65555 145.716 7.9 145.872 8.1C146.028 8.3 146.25 8.41111 146.539 8.43333L151.505 9.1C153.061 9.32222 154.316 9.83333 155.272 10.6333C156.228 11.4333 156.705 12.7667 156.705 14.6333V18.1333C156.705 20.0222 156.083 21.4778 154.839 22.5C153.616 23.5 151.939 24 149.805 24Z" fill="#2D3031" fill-opacity="0.5"/>
<path d="M133.662 24H116.695C116.273 24 115.962 23.9111 115.762 23.7333C115.584 23.5333 115.495 23.2222 115.495 22.8V1.2C115.495 0.777778 115.584 0.477778 115.762 0.3C115.962 0.1 116.273 0 116.695 0H121.862C122.284 0 122.584 0.1 122.762 0.3C122.962 0.477778 123.062 0.777778 123.062 1.2V17.7H127.628V12.3C127.628 11.8778 127.717 11.5778 127.895 11.4C128.095 11.2 128.406 11.1 128.828 11.1H133.662C134.084 11.1 134.384 11.2 134.562 11.4C134.762 11.5778 134.862 11.8778 134.862 12.3V22.8C134.862 23.2222 134.762 23.5333 134.562 23.7333C134.384 23.9111 134.084 24 133.662 24Z" fill="#2D3031" fill-opacity="0.5"/>
<path d="M110.351 24H94.8848C94.4626 24 94.1515 23.9111 93.9515 23.7333C93.7737 23.5333 93.6848 23.2222 93.6848 22.8V1.2C93.6848 0.777778 93.7737 0.477778 93.9515 0.3C94.1515 0.1 94.4626 0 94.8848 0H110.351C110.774 0 111.074 0.1 111.251 0.3C111.451 0.477778 111.551 0.777778 111.551 1.2V5.1C111.551 5.52222 111.451 5.83333 111.251 6.03333C111.074 6.21111 110.774 6.3 110.351 6.3H101.151V8.86667H107.651C108.074 8.86667 108.374 8.96667 108.551 9.16667C108.751 9.34444 108.851 9.64444 108.851 10.0667V13.6333C108.851 14.0556 108.751 14.3667 108.551 14.5667C108.374 14.7444 108.074 14.8333 107.651 14.8333H101.151V17.7H110.351C110.774 17.7 111.074 17.8 111.251 18C111.451 18.1778 111.551 18.4778 111.551 18.9V22.8C111.551 23.2222 111.451 23.5333 111.251 23.7333C111.074 23.9111 110.774 24 110.351 24Z" fill="#2D3031" fill-opacity="0.5"/>
<path d="M76.275 22.8C76.275 23.2222 76.175 23.5333 75.975 23.7333C75.7972 23.9111 75.4972 24 75.075 24H70.0083C69.5861 24 69.275 23.9111 69.075 23.7333C68.8972 23.5333 68.8083 23.2222 68.8083 22.8V19.2333C68.8083 18.2111 68.8972 17.4444 69.075 16.9333C69.2528 16.4222 69.5861 15.8222 70.075 15.1333L72.775 11.5L70.075 7.86667C69.5639 7.17778 69.2195 6.57778 69.0417 6.06667C68.8861 5.55555 68.8083 4.78889 68.8083 3.76667V1.2C68.8083 0.777778 68.8972 0.477778 69.075 0.3C69.275 0.1 69.5861 0 70.0083 0H75.1417C75.5639 0 75.8639 0.1 76.0417 0.3C76.2417 0.477778 76.3417 0.777778 76.3417 1.2V3.5C76.3417 3.72222 76.3528 3.95556 76.375 4.2C76.3972 4.44444 76.4861 4.67778 76.6417 4.9L78.1083 7C78.2195 7.17778 78.3306 7.32222 78.4417 7.43333C78.575 7.52222 78.7306 7.56667 78.9083 7.56667H79.3083C79.4861 7.56667 79.6306 7.52222 79.7417 7.43333C79.8528 7.32222 79.975 7.17778 80.1083 7L81.6083 4.9C81.7639 4.67778 81.8528 4.44444 81.875 4.2C81.8972 3.95556 81.9083 3.72222 81.9083 3.5V1.2C81.9083 0.777778 81.9972 0.477778 82.175 0.3C82.375 0.1 82.6861 0 83.1083 0H88.175C88.5972 0 88.8972 0.1 89.075 0.3C89.275 0.477778 89.375 0.777778 89.375 1.2V3.76667C89.375 4.78889 89.2861 5.55555 89.1083 6.06667C88.9306 6.57778 88.5972 7.17778 88.1083 7.86667L85.4083 11.5333L88.1083 15.1333C88.6195 15.8222 88.9528 16.4222 89.1083 16.9333C89.2861 17.4444 89.375 18.2111 89.375 19.2333V22.8C89.375 23.2222 89.275 23.5333 89.075 23.7333C88.8972 23.9111 88.5972 24 88.175 24H83.1083C82.6861 24 82.375 23.9111 82.175 23.7333C81.9972 23.5333 81.9083 23.2222 81.9083 22.8V19.5C81.9083 19.2778 81.8972 19.0444 81.875 18.8C81.8528 18.5556 81.7639 18.3222 81.6083 18.1L80.1417 16C80.0083 15.8 79.8861 15.6556 79.775 15.5667C79.6639 15.4778 79.5195 15.4333 79.3417 15.4333H78.875C78.6972 15.4333 78.5528 15.4778 78.4417 15.5667C78.3306 15.6556 78.2083 15.8 78.075 16L76.575 18.1C76.4195 18.3222 76.3306 18.5556 76.3083 18.8C76.2861 19.0444 76.275 19.2778 76.275 19.5V22.8Z" fill="#2D3031" fill-opacity="0.5"/>
<path d="M49.5928 24C49.1706 24 48.8595 23.9111 48.6595 23.7333C48.4817 23.5333 48.3928 23.2222 48.3928 22.8V18.8333C48.3928 18.4111 48.4817 18.1111 48.6595 17.9333C48.8595 17.7333 49.1706 17.6333 49.5928 17.6333H52.8928V6.43333H49.5928C49.1706 6.43333 48.8595 6.34444 48.6595 6.16667C48.4817 5.96667 48.3928 5.65556 48.3928 5.23333V1.2C48.3928 0.777778 48.4817 0.477778 48.6595 0.3C48.8595 0.1 49.1706 0 49.5928 0H63.7928C64.215 0 64.515 0.1 64.6928 0.3C64.8928 0.477778 64.9928 0.777778 64.9928 1.2V5.23333C64.9928 5.65556 64.8928 5.96667 64.6928 6.16667C64.515 6.34444 64.215 6.43333 63.7928 6.43333H60.5595V17.6333H63.7928C64.215 17.6333 64.515 17.7333 64.6928 17.9333C64.8928 18.1111 64.9928 18.4111 64.9928 18.8333V22.8C64.9928 23.2222 64.8928 23.5333 64.6928 23.7333C64.515 23.9111 64.215 24 63.7928 24H49.5928Z" fill="#2D3031" fill-opacity="0.5"/>
<path d="M31.6869 6V10.2667H34.1869C34.7647 10.2667 35.1536 10.1222 35.3536 9.83333C35.5536 9.52222 35.6536 9.14444 35.6536 8.7V7.56667C35.6536 7.12222 35.5536 6.75556 35.3536 6.46667C35.1536 6.15556 34.7647 6 34.1869 6H31.6869ZM30.4869 24H25.3536C24.9313 24 24.6202 23.9111 24.4202 23.7333C24.2425 23.5333 24.1536 23.2222 24.1536 22.8V1.2C24.1536 0.777778 24.2425 0.477778 24.4202 0.3C24.6202 0.1 24.9313 0 25.3536 0H36.4536C38.9425 0 40.6536 0.522222 41.5869 1.56667C42.5425 2.58889 43.0202 3.92222 43.0202 5.56667V7.1C43.0202 8.03333 42.8758 8.83333 42.5869 9.5C42.3202 10.1444 41.8425 10.6111 41.1536 10.9C42.3536 11.0333 43.3202 11.5222 44.0536 12.3667C44.8091 13.2111 45.1869 14.3333 45.1869 15.7333V22.8C45.1869 23.2222 45.0869 23.5333 44.8869 23.7333C44.7091 23.9111 44.4091 24 43.9869 24H38.8202C38.398 24 38.0869 23.9111 37.8869 23.7333C37.7091 23.5333 37.6202 23.2222 37.6202 22.8V17.7C37.6202 17.2111 37.5202 16.8556 37.3202 16.6333C37.1425 16.3889 36.8202 16.2667 36.3536 16.2667H31.6869V22.8C31.6869 23.2222 31.5869 23.5333 31.3869 23.7333C31.2091 23.9111 30.9091 24 30.4869 24Z" fill="#2D3031" fill-opacity="0.5"/>
<path d="M14 24H1.2C0.777778 24 0.466667 23.9111 0.266667 23.7333C0.088889 23.5333 0 23.2222 0 22.8V1.2C0 0.777778 0.088889 0.477778 0.266667 0.3C0.466667 0.1 0.777778 0 1.2 0H11.8333C14.0111 0 15.6222 0.422222 16.6667 1.26667C17.7111 2.08889 18.2333 3.36667 18.2333 5.1V6.7C18.2333 7.63333 18.0667 8.4 17.7333 9C17.4222 9.57778 16.9333 10.0111 16.2667 10.3C17.6889 10.4333 18.7444 10.9222 19.4333 11.7667C20.1222 12.6111 20.4667 13.8444 20.4667 15.4667V18.5333C20.4667 20.4 19.9333 21.7778 18.8667 22.6667C17.8222 23.5556 16.2 24 14 24ZM7.5 5.66667V9.26667H10.3333C10.7556 9.26667 11.0667 9.15555 11.2667 8.93333C11.4889 8.71111 11.6 8.37778 11.6 7.93333V7C11.6 6.55555 11.4889 6.22222 11.2667 6C11.0667 5.77778 10.7556 5.66667 10.3333 5.66667H7.5ZM7.5 14.4V18.3333H11.8333C12.2556 18.3333 12.5667 18.2222 12.7667 18C12.9889 17.7778 13.1 17.4444 13.1 17V15.7C13.1 15.2556 12.9889 14.9333 12.7667 14.7333C12.5667 14.5111 12.2556 14.4 11.8333 14.4H7.5Z" fill="#2D3031" fill-opacity="0.5"/>
</svg>
